# 3ds Max Wavefront OBJ Exporter v0.97b - (c)2007 guruware
# File Created: 19.08.2013 02:51:14

mtllib fallforestgrassobj01.mtl

#
# object FallForestGrassObj01_0
#

v  28.2441 -2.1385 19.8837
v  -10.3957 -2.1743 -32.0844
v  -29.7574 47.6396 -0.3541
v  22.2751 56.4853 23.7609
v  -4.4846 -2.1905 24.0939
v  24.6505 -2.2197 -20.1454
v  -7.2032 46.7443 -31.7762
v  -11.1823 53.9799 14.9651
v  -16.8772 -2.1101 0.1149
v  25.2783 -2.1340 10.1330
v  25.3068 36.6399 -17.6052
v  -11.7340 42.5585 -7.5872
v  9.7037 -6.5436 32.7567
v  18.6420 24.7361 37.4679
v  10.7906 26.9062 26.6494
v  13.1954 -4.7112 18.1008
v  17.4393 -6.1436 26.2975
v  19.1080 20.0278 25.6574
v  9.1425 19.7786 32.8270
v  4.1166 -4.6763 23.3537
v  -27.8685 -4.9643 28.5225
v  -19.6599 39.6668 27.9065
v  -29.3403 39.6668 11.6999
v  -21.3646 -4.9643 8.4219
v  -16.3930 -4.8416 20.4871
v  -16.9499 30.9785 13.0681
v  -31.5975 30.9785 21.8173
v  -34.5602 -4.8416 14.6088
v  43.7117 -4.7342 -1.6396
v  43.7962 32.3602 -8.4806
v  29.6765 32.3602 -1.6396
v  27.5401 -4.7342 -8.4806
v  37.8898 -4.6322 -11.7230
v  31.7068 25.1390 -11.7994
v  37.8898 25.1390 0.9622
v  31.7068 -4.6322 2.8931
v  13.5295 -4.6152 -40.7886
v  7.1299 28.5809 -43.2078
v  8.7291 28.5809 -27.5998
v  1.5700 -4.6152 -27.9321
v  2.0630 -4.5240 -38.7666
v  -0.1235 22.1186 -32.9826
v  13.9832 22.1186 -34.4280
v  13.6829 -4.5240 -27.9574
v  -20.9798 -6.2732 -23.4422
v  -34.7236 29.2297 -21.7532
v  -24.6171 30.8208 -9.8852
v  -23.3654 -6.6488 -6.0510
v  -31.6715 -7.5802 -16.3641
v  -35.9585 21.9754 -10.3720
v  -25.3950 23.6384 -19.6473
v  -16.1919 -5.1433 -14.1746
# 52 vertices

vn 0.5695 0.3640 -0.7370
vn 0.6597 0.5691 -0.4909
vn 0.5718 0.3682 -0.7331
vn 0.4041 0.1013 -0.9091
vn 0.8670 0.3950 0.3038
vn 0.6927 0.5589 0.4558
vn 0.8988 0.3505 0.2632
vn 0.9896 0.1285 0.0644
vn 0.0159 0.4015 0.9157
vn -0.1894 0.5714 0.7985
vn 0.0570 0.3632 0.9300
vn 0.2784 0.1320 0.9514
vn -0.9991 0.0264 -0.0332
vn -0.7888 0.1351 0.5996
vn -0.9051 0.1047 0.4122
vn -0.9724 -0.0110 -0.2330
vn -0.0176 -0.2495 0.9682
vn 0.5842 -0.0174 0.8114
vn 0.3727 -0.1127 0.9211
vn -0.2375 -0.3081 0.9212
vn -0.9907 -0.0753 -0.1130
vn -0.8471 0.1628 0.5060
vn -0.9456 0.0870 0.3136
vn -0.9413 -0.1458 -0.3046
vn -0.0903 -0.0752 0.9931
vn 0.5042 0.1827 0.8441
vn 0.2902 0.0878 0.9529
vn -0.3037 -0.1638 0.9386
vn -0.1990 -0.0753 0.9771
vn 0.4302 0.1628 0.8879
vn 0.2300 0.0870 0.9693
vn -0.3854 -0.1458 0.9111
vn 0.9814 -0.0752 0.1765
vn 0.8848 0.1827 -0.4287
vn 0.9746 0.0878 -0.2061
vn 0.9085 -0.1638 0.3843
vn 0.8611 -0.0753 0.5029
vn 0.9783 0.1813 -0.1002
vn 0.9865 0.0878 0.1380
vn 0.7225 -0.1625 0.6720
vn 0.4815 -0.0732 -0.8734
vn -0.0998 0.2033 -0.9740
vn 0.1640 0.0866 -0.9826
vn 0.6697 -0.1824 -0.7199
vn 0.9911 0.1189 -0.0594
vn 0.7050 0.3034 -0.6410
vn 0.8440 0.2552 -0.4718
vn 0.9895 0.0470 0.1367
vn -0.0669 -0.0910 -0.9936
vn -0.6637 0.0550 -0.7460
vn -0.4620 -0.0004 -0.8869
vn 0.1596 -0.1349 -0.9779
# 52 vertex normals

vt 0.0000 0.0491 0.0000
vt 0.7605 0.0491 0.0000
vt 0.6896 0.9873 0.0000
vt 0.0106 0.9873 0.0000
vt 1.0000 0.0491 0.0000
vt 1.0013 0.5956 0.0000
vt 0.7921 0.5956 0.0000
# 7 texture coords

g FallForestGrassObj01_0
usemtl Material__25
s 1
f 1/1/1 2/2/2 3/3/3 
s 2
f 3/3/3 4/4/4 1/1/1 
s 1
f 5/1/5 6/2/6 7/3/7 
s 2
f 7/3/7 8/4/8 5/1/5 
s 1
f 9/1/9 10/2/10 11/3/11 
s 2
f 11/3/11 12/4/12 9/1/9 
s 1
f 13/5/13 14/6/14 15/7/15 
s 2
f 15/7/15 16/2/16 13/5/13 
s 1
f 17/5/17 18/6/18 19/7/19 
s 2
f 19/7/19 20/2/20 17/5/17 
s 1
f 21/5/21 22/6/22 23/7/23 
s 2
f 23/7/23 24/2/24 21/5/21 
s 1
f 25/5/25 26/6/26 27/7/27 
s 2
f 27/7/27 28/2/28 25/5/25 
s 1
f 29/5/29 30/6/30 31/7/31 
s 2
f 31/7/31 32/2/32 29/5/29 
s 1
f 33/5/33 34/6/34 35/7/35 
s 2
f 35/7/35 36/2/36 33/5/33 
s 1
f 37/5/37 38/6/38 39/7/39 
s 2
f 39/7/39 40/2/40 37/5/37 
s 1
f 41/5/41 42/6/42 43/7/43 
s 2
f 43/7/43 44/2/44 41/5/41 
s 1
f 45/5/45 46/6/46 47/7/47 
s 2
f 47/7/47 48/2/48 45/5/45 
s 1
f 49/5/49 50/6/50 51/7/51 
s 2
f 51/7/51 52/2/52 49/5/49 
# 0 polygons - 26 triangles

