# 3ds Max Wavefront OBJ Exporter v0.97b - (c)2007 guruware
# File Created: 18.08.2013 23:11:42

mtllib fieldgrassobj01.mtl

#
# object FieldGrass01_0
#

v  -38.1574 20.3506 -0.3540
v  39.9753 16.4957 -0.3540
v  -6.3874 -18.1528 63.5431
v  -31.5825 23.0327 -0.4449
v  13.4659 17.2209 57.6965
v  9.2452 -35.2753 -0.4449
v  23.7469 23.7687 -0.3740
v  -10.0723 -30.7677 -0.3741
v  -16.5100 16.2731 52.0418
# 9 vertices

vn -0.0427 -0.8650 -0.5000
vn 0.7094 0.4967 -0.5000
vn -0.7360 0.4564 -0.5000
# 3 vertex normals

vt -0.0770 0.0000 0.0000
vt 1.1667 0.0000 0.0000
vt 0.4576 1.1731 0.0000
vt 0.4550 1.1731 0.0000
# 4 texture coords

g FieldGrass01_0
usemtl Material__27
s 1
f 1/1/1 2/2/1 3/3/1 
f 4/2/2 5/4/2 6/1/2 
f 7/1/3 8/2/3 9/3/3 
# 0 polygons - 3 triangles

