# 3ds Max Wavefront OBJ Exporter v0.97b - (c)2007 guruware
# File Created: 19.08.2013 02:52:10

mtllib forestgrass01.mtl

#
# object ForestGrass01_0
#

v  13.7163 3.3017 -21.1712
v  1.6061 3.4153 -20.6746
v  -3.9832 8.3248 -15.8063
v  -4.0938 11.7032 -1.4963
v  9.6333 15.3828 -1.9924
v  15.7542 10.6802 -11.5596
v  16.1056 19.1210 8.7153
v  39.8603 13.1645 5.5424
v  40.7500 7.6075 -13.3881
v  22.0715 10.7572 39.2914
v  36.1237 7.6486 22.6772
v  24.9453 10.4604 7.9224
v  13.0499 7.6157 26.6638
v  -1.8534 13.9350 1.2664
v  -12.3210 12.5603 11.6419
v  -11.1249 12.5603 20.2118
v  2.6923 13.9350 29.2555
v  14.2694 11.7974 18.9333
v  9.1511 11.7974 2.8198
v  0.2742 4.2890 26.3674
v  5.0382 6.2511 40.1488
v  13.3081 4.8226 40.0704
v  14.1199 6.2511 22.9892
v  1.0679 1.6515 20.1803
v  -25.5882 3.5155 15.1788
v  -36.1231 0.7642 27.9747
v  -11.8874 1.2887 45.9723
v  -34.7441 9.0034 27.4738
v  -9.0887 9.6680 18.7470
v  -20.8438 9.6680 -11.3819
v  -39.1837 8.8702 -10.8034
v  -2.6048 6.0712 -7.2143
v  -2.1563 6.0712 8.9305
v  0.3350 9.1283 -40.9524
v  -39.1608 5.3071 -18.7501
v  -29.9168 9.1283 -3.2181
v  8.0422 4.9582 -27.6155
v  27.7873 4.4630 -4.4162
v  40.3747 1.1910 -18.4398
v  18.3180 4.4630 -33.9126
v  7.9517 1.6876 -26.0652
v  27.6280 19.4704 14.9333
v  -22.0759 20.1230 10.7371
v  -22.3443 3.6856 21.5075
v  27.0686 2.7425 16.0780
v  15.6606 23.2762 6.5489
v  1.5091 16.5962 -15.5915
v  -2.8633 1.1588 -17.2308
v  6.2533 -2.3898 11.3115
v  -26.6481 -4.0200 -3.7062
v  -20.1912 13.5055 6.5770
v  -11.0063 21.8831 -7.2083
v  -14.4255 1.2778 -12.1626
# 53 vertices

vn -0.0088 0.8172 -0.5763
vn -0.0232 0.6905 -0.7230
vn -0.0435 0.8736 -0.4846
vn -0.2599 0.9394 -0.2238
vn -0.0003 0.9143 -0.4050
vn -0.0936 0.8706 -0.4829
vn 0.1262 0.9285 -0.3491
vn 0.2006 0.9425 -0.2672
vn 0.1466 0.9348 -0.3235
vn -0.0500 0.9987 -0.0140
vn 0.2293 0.9733 0.0118
vn 0.0272 0.9996 -0.0070
vn -0.2844 0.9580 -0.0351
vn 0.0561 0.9982 -0.0192
vn -0.1146 0.9933 0.0160
vn -0.1117 0.9936 0.0175
vn 0.0375 0.9993 -0.0061
vn 0.1680 0.9852 -0.0341
vn 0.1989 0.9780 -0.0632
vn -0.0376 0.9993 -0.0031
vn 0.1652 0.9668 -0.1948
vn 0.0245 0.9978 -0.0622
vn -0.1215 0.9896 0.0770
vn -0.0085 0.9973 0.0731
vn 0.0249 0.9729 0.2297
vn -0.0017 0.9945 0.1050
vn -0.0234 0.9997 0.0023
vn -0.0298 0.9995 0.0064
vn 0.1092 0.9939 -0.0172
vn 0.0486 0.9985 -0.0254
vn -0.0434 0.9991 0.0016
vn 0.2511 0.9654 -0.0710
vn 0.4466 0.8946 -0.0124
vn 0.1255 0.9870 0.1006
vn -0.1718 0.9755 -0.1377
vn -0.0896 0.9934 -0.0718
vn 0.2176 0.9603 0.1745
vn 0.0715 0.9972 -0.0229
vn 0.1877 0.9804 -0.0603
vn -0.0737 0.9970 0.0237
vn -0.2101 0.9754 0.0674
vn 0.0710 0.1837 0.9804
vn -0.0632 0.5477 0.8343
vn -0.0279 0.4583 0.8883
vn 0.1102 0.0642 0.9918
vn -0.8685 0.3237 0.3754
vn -0.8523 0.1896 0.4875
vn -0.8671 0.2936 0.4024
vn -0.8673 0.3780 0.3240
vn -0.7533 0.3825 -0.5350
vn -0.8393 0.4698 -0.2737
vn -0.7809 0.4075 -0.4735
vn -0.6252 0.2790 -0.7289
# 53 vertex normals

vt 0.6576 0.7774 0.0000
vt 0.5112 0.7639 0.0000
vt 0.4465 0.6838 0.0000
vt 0.4550 0.5095 0.0000
vt 0.6208 0.5063 0.0000
vt 0.6886 0.6379 0.0000
vt 0.7065 0.3743 0.0000
vt 0.9925 0.4517 0.0000
vt 0.9905 0.6877 0.0000
vt 0.9874 0.1345 0.0000
vt 0.9004 0.3832 0.0000
vt 0.6790 0.3604 0.0000
vt 0.7989 0.1198 0.0000
vt 0.4937 0.5087 0.0000
vt 0.3637 0.3827 0.0000
vt 0.3782 0.2787 0.0000
vt 0.5489 0.1689 0.0000
vt 0.6933 0.2942 0.0000
vt 0.6312 0.4899 0.0000
vt 0.5517 0.1674 0.0000
vt 0.6080 0.0009 0.0000
vt 0.7084 0.0019 0.0000
vt 0.7183 0.2092 0.0000
vt 0.3581 0.3690 0.0000
vt 0.0622 0.2176 0.0000
vt 0.0622 0.0151 0.0000
vt 0.4503 0.0148 0.0000
vt 0.0466 0.2631 0.0000
vt 0.2154 0.7348 0.0000
vt -0.0073 0.7278 0.0000
vt 0.4486 0.6855 0.0000
vt 0.4540 0.4895 0.0000
vt 0.6143 0.9629 0.0000
vt 0.0646 0.9830 0.0000
vt 0.0620 0.7636 0.0000
vt 0.6077 0.7814 0.0000
vt 0.7085 0.6451 0.0000
vt 0.9293 0.6899 0.0000
vt 0.8330 1.0000 0.0000
vt 0.6751 1.0000 0.0000
# 40 texture coords

g ForestGrass01_0
usemtl Material__28
s 1
f 1/1/1 2/2/2 3/3/3 
f 3/3/3 4/4/4 5/5/5 
f 1/1/1 3/3/3 5/5/5 
f 6/6/6 1/1/1 5/5/5 
f 7/7/7 8/8/8 9/9/9 
f 7/7/7 9/9/9 6/6/6 
f 5/5/5 7/7/7 6/6/6 
f 10/10/10 11/11/11 12/12/12 
f 12/12/12 13/13/13 10/10/10 
f 14/14/14 15/15/15 16/16/16 
f 16/16/16 17/17/17 14/14/14 
f 18/18/18 19/19/19 14/14/14 
f 14/14/14 17/17/17 18/18/18 
f 20/20/20 21/21/21 22/22/22 
f 22/22/22 23/23/23 20/20/20 
f 24/24/24 25/25/25 26/26/26 
f 26/26/26 27/27/27 24/24/24 
f 28/28/28 29/24/29 30/29/30 
f 30/29/30 31/30/31 28/28/28 
f 32/31/32 30/29/30 29/24/29 
f 29/24/29 33/32/33 32/31/32 
f 34/33/34 35/34/35 36/35/36 
f 36/35/36 37/36/37 34/33/34 
f 38/37/38 39/38/39 40/39/40 
f 40/39/40 41/40/41 38/37/38 
f 42/33/42 43/34/43 44/35/44 
s 2
f 44/35/44 45/36/45 42/33/42 
s 1
f 46/24/46 47/25/47 48/26/48 
f 48/26/48 49/27/49 46/24/46 
f 50/10/50 51/11/51 52/12/52 
s 2
f 52/12/52 53/13/53 50/10/50 
# 0 polygons - 31 triangles

