# 3ds Max Wavefront OBJ Exporter v0.97b - (c)2007 guruware
# File Created: 19.08.2013 02:52:39

mtllib forestgrass02.mtl

#
# object ForestGrass02_0
#

v  -7.5163 -0.5240 7.4764
v  15.0779 8.1594 27.2764
v  20.4973 4.1553 -4.3264
v  -16.6323 4.7361 18.4156
v  -2.3765 0.8004 37.6379
v  -3.8665 1.8105 -22.1233
v  12.1725 12.0585 -24.3375
v  21.8656 13.5192 28.8193
v  41.6727 8.5322 8.7243
v  26.4116 2.0274 -7.8925
v  12.9779 13.0877 5.7927
v  24.6571 11.5185 -19.7330
v  12.2109 5.4539 -42.1286
v  -4.4326 3.2400 -33.3536
v  10.2918 16.8316 -9.3152
v  35.2709 -1.8839 6.2921
v  17.1786 5.6148 -19.2727
v  15.8269 31.1994 -6.4286
v  1.2581 19.3918 14.2858
v  14.8744 10.4761 -6.0602
v  -4.0188 -1.7201 -5.3313
v  -30.2919 1.4479 -19.4260
v  -16.3461 9.8334 -0.2749
v  -5.4888 10.3952 -10.1402
v  -13.2613 -0.1939 -22.6063
v  -6.2066 8.4584 -16.0073
v  -3.6471 3.3908 -36.1553
v  -26.0020 2.8882 -36.1217
v  -24.1622 1.0372 -14.7139
v  -16.6029 2.3387 -4.4001
v  -29.3495 7.0610 -15.6719
v  -40.5719 2.3387 -9.3963
v  -29.8692 7.5276 0.9238
v  -30.5528 -2.4454 -12.3621
v  -21.3772 22.4885 -0.4797
v  11.2662 4.8992 21.0612
v  -41.6727 10.3411 6.1595
v  -25.0716 4.8449 42.1286
v  -3.1248 -1.6820 23.9245
v  -12.5535 11.4954 -0.9439
v  -21.2579 14.5658 40.3824
v  -8.5065 13.5285 17.6848
v  -25.8888 -0.6276 15.7632
# 43 vertices

vn -0.0860 0.9948 -0.0538
vn -0.3105 0.9486 -0.0616
vn -0.2548 0.9632 0.0853
vn 0.3968 0.9116 -0.1076
vn -0.1618 0.9867 -0.0158
vn -0.2775 0.9255 0.2579
vn -0.4244 0.7679 0.4798
vn 0.1971 0.9423 -0.2706
vn -0.0714 0.9493 -0.3060
vn 0.1795 0.9450 -0.2736
vn 0.4893 0.8477 -0.2048
vn -0.0876 0.9232 -0.3741
vn -0.2063 0.9673 -0.1473
vn -0.1383 0.9495 -0.2817
vn -0.0244 0.8766 -0.4807
vn 0.8191 0.2914 -0.4942
vn -0.4523 0.6651 -0.5942
vn -0.1418 0.8745 -0.4638
vn -0.2544 0.9402 -0.2264
vn -0.1815 0.9042 -0.3865
vn -0.0432 0.7746 -0.6310
vn -0.2004 0.9770 -0.0733
vn -0.0222 0.9689 -0.2465
vn -0.1965 0.9775 -0.0773
vn -0.3727 0.9212 0.1117
vn 0.0163 0.9968 -0.0780
vn -0.0997 0.8725 0.4783
vn -0.0049 0.9997 0.0234
vn 0.1118 0.8364 -0.5365
vn 0.6004 0.1531 -0.7849
vn 0.1866 0.9527 0.2398
vn 0.2932 0.9560 0.0107
vn 0.2100 0.9585 0.1930
vn 0.0732 0.8925 0.4451
vn -0.5672 0.7443 -0.3526
# 35 vertex normals

vt 0.4475 0.4693 0.0000
vt 0.6737 0.2711 0.0000
vt 0.7280 0.5875 0.0000
vt 0.3562 0.3598 0.0000
vt 0.4990 0.1673 0.0000
vt 0.4840 0.7657 0.0000
vt 0.6556 0.8015 0.0000
vt 0.6744 0.3736 0.0000
vt 0.9951 0.4246 0.0000
vt 0.9869 0.6891 0.0000
vt 0.7421 0.6439 0.0000
vt 0.9136 0.6937 0.0000
vt 0.9039 0.9947 0.0000
vt 0.6883 1.0000 0.0000
vt 0.7123 0.6461 0.0000
vt 0.4293 0.0673 0.0000
vt 0.3576 0.3644 0.0000
vt 0.1612 0.2698 0.0000
vt 0.7130 -0.0358 0.0000
vt 0.7200 0.2114 0.0000
vt 0.5133 0.1572 0.0000
vt 0.6761 0.3392 0.0000
vt 0.8413 0.1042 0.0000
vt 0.9686 0.2089 0.0000
vt 0.8678 0.3858 0.0000
vt 0.5060 1.0000 0.0000
vt 0.2522 1.0000 0.0000
vt 0.2668 0.7565 0.0000
vt 0.2381 0.7843 0.0000
vt 0.1845 0.9373 0.0000
vt 0.0620 0.9373 0.0000
vt 0.1030 0.8017 0.0000
vt 0.0518 0.3713 0.0000
vt 0.0377 0.0925 0.0000
vt 0.4172 -0.0026 0.0000
vt 0.4544 0.6976 0.0000
vt 0.0003 0.7224 0.0000
vt 0.0428 0.4061 0.0000
vt 0.3690 0.3654 0.0000
# 39 texture coords

g ForestGrass02_0
usemtl Material__29
s 1
f 1/1/1 2/2/2 3/3/3 
s 2
f 1/1/1 4/4/4 5/5/5 
s 1
f 5/5/5 2/2/2 1/1/1 
f 6/6/6 1/1/1 3/3/3 
s 2
f 3/3/3 7/7/7 6/6/6 
s 1
f 8/8/8 9/9/9 10/10/10 
s 2
f 10/10/10 11/11/11 8/8/8 
s 1
f 12/12/12 13/13/13 14/14/14 
f 14/14/14 15/15/15 12/12/12 
f 16/16/16 17/17/16 18/18/16 
f 19/19/17 20/20/17 21/21/17 
f 22/22/18 23/23/19 24/24/20 
f 24/24/20 25/25/21 22/22/18 
f 26/6/22 27/26/23 28/27/24 
f 28/27/24 29/28/25 26/6/22 
f 30/29/26 31/30/27 32/31/28 
s 2
f 32/31/28 33/32/29 30/29/26 
s 1
f 34/33/30 35/34/30 36/35/30 
f 37/36/31 38/37/32 39/38/33 
f 39/38/33 40/39/34 37/36/31 
f 41/19/35 42/20/35 43/21/35 
# 0 polygons - 21 triangles

