# 3ds Max Wavefront OBJ Exporter v0.97b - (c)2007 guruware
# File Created: 19.08.2013 02:53:58

mtllib frozenmarshgrassobj01.mtl

#
# object MarshGrassObj01_0
#

v  -38.7444 -2.7860 -4.2030
v  38.8354 -2.8640 -2.2619
v  3.1139 50.6614 14.4600
v  50.9038 45.5642 19.6367
v  -38.4522 35.3760 23.9418
v  40.8721 -1.9309 10.4030
v  6.9286 -1.9565 27.5749
v  9.1632 32.7606 34.6205
v  53.5323 25.3667 22.1902
v  6.9301 -1.9752 7.5727
v  31.5016 -2.0003 39.1444
v  39.2762 39.4472 35.1766
v  35.8420 28.9882 -15.2907
v  5.8633 1.6967 7.9094
v  36.7032 -6.9621 -21.3750
v  42.7708 32.0517 -36.5826
v  -11.3816 32.0278 -23.7190
v  43.4519 -5.3725 0.6252
v  2.5178 -2.5662 -31.0443
v  8.2884 46.0582 -33.9157
v  29.7241 37.6254 27.3075
v  -21.0600 -1.9317 -29.7528
v  -5.3293 -1.9565 4.8823
v  1.8040 32.7606 2.9457
v  6.8769 25.3667 -43.6743
v  -25.3138 -1.9726 4.0404
v  11.9853 -2.0003 -20.9930
v  8.3477 39.4472 -28.9274
v  -46.9423 28.9882 -25.8065
v  15.3066 -2.6362 -26.1487
v  -12.5573 -5.9962 39.2717
v  -10.7315 38.4235 3.3557
v  -18.4281 34.4554 37.5804
v  11.0789 28.7876 -45.9877
v  -13.9191 -2.6959 -30.0397
v  23.3467 -2.7505 30.1101
v  -7.2501 45.8186 11.2121
v  12.6692 41.1710 50.2532
v  -39.2221 31.8816 -18.7668
v  -12.6480 -9.1142 37.4146
v  8.1785 0.1985 7.8292
v  -4.4036 33.5558 15.3729
v  -37.4268 17.0664 28.1331
v  17.9183 -2.3977 24.9842
v  -22.5562 -3.2737 5.5292
v  -33.5368 44.2815 16.4056
v  0.0021 30.6566 57.7628
# 47 vertices

vn 0.1501 -0.4286 0.8909
vn -0.0752 -0.3427 0.9364
vn 0.0400 -0.4069 0.9126
vn -0.1395 -0.3789 0.9149
vn 0.3732 -0.5525 0.7453
vn -0.2853 0.3594 -0.8885
vn -0.4419 0.2056 -0.8732
vn -0.3253 0.3231 -0.8887
vn -0.1689 0.4557 -0.8740
vn -0.8365 0.4905 0.2442
vn -0.7727 0.2025 0.6016
vn -0.8369 0.4870 0.2499
vn -0.7581 0.6469 -0.0825
vn 0.4135 0.5551 0.7217
vn 0.7030 0.1607 0.6928
vn 0.4535 0.5148 0.7275
vn 0.1517 0.7534 0.6398
vn 0.8289 0.2217 -0.5136
vn 0.6026 -0.1181 -0.7893
vn 0.8032 0.1647 -0.5725
vn 0.8691 0.4296 -0.2451
vn -0.8608 0.5047 0.0664
vn -0.8910 0.2056 0.4048
vn -0.8747 0.4717 0.1111
vn -0.7323 0.6557 -0.1837
vn 0.1940 0.5095 0.8383
vn 0.5457 0.2035 0.8129
vn 0.2454 0.4738 0.8458
vn -0.0829 0.6610 0.7458
vn -0.8837 -0.3057 -0.3545
vn -0.9189 -0.2246 -0.3245
vn -0.9081 -0.2549 -0.3321
vn -0.9609 -0.1492 -0.2334
vn -0.8865 -0.3264 -0.3281
vn -0.6529 -0.4366 0.6190
vn -0.8242 -0.3443 0.4495
vn -0.7402 -0.4086 0.5340
vn -0.8413 -0.3806 0.3839
vn -0.4316 -0.5492 0.7156
vn 0.4780 0.3284 0.8146
vn 0.7830 0.1593 0.6013
vn 0.4957 0.3211 0.8070
vn 0.1267 0.4358 0.8911
vn 0.5837 0.5305 -0.6146
vn 0.4092 0.2922 -0.8644
vn 0.5840 0.5309 -0.6141
vn 0.6657 0.6754 -0.3173
# 47 vertex normals

vt 0.0000 0.0000 0.0000
vt 1.0000 0.0000 0.0000
vt 0.5385 1.0000 0.0000
vt 1.0000 1.0000 0.0000
vt 0.0344 0.9899 0.0000
vt 1.0129 1.0000 0.0000
vt -0.0129 1.0013 0.0000
# 7 texture coords

g MarshGrassObj01_0
usemtl Material__30
s 1
f 1/1/1 2/2/2 3/3/3 
f 2/2/2 4/4/4 3/3/3 
f 3/3/3 5/5/5 1/1/1 
f 6/1/6 7/2/7 8/6/8 
f 8/6/8 9/7/9 6/1/6 
f 10/1/10 11/2/11 12/6/12 
s 2
f 12/6/12 13/7/13 10/1/10 
s 1
f 14/1/14 15/2/15 16/6/16 
s 2
f 16/6/16 17/7/17 14/1/14 
s 1
f 18/1/18 19/2/19 20/6/20 
s 2
f 20/6/20 21/7/21 18/1/18 
s 1
f 22/1/22 23/2/23 24/6/24 
s 2
f 24/6/24 25/7/25 22/1/22 
s 1
f 26/1/26 27/2/27 28/6/28 
s 2
f 28/6/28 29/7/29 26/1/26 
s 1
f 30/1/30 31/2/31 32/3/32 
f 31/2/31 33/4/33 32/3/32 
f 32/3/32 34/5/34 30/1/30 
f 35/1/35 36/2/36 37/3/37 
f 36/2/36 38/4/38 37/3/37 
f 37/3/37 39/5/39 35/1/35 
f 40/1/40 41/2/41 42/6/42 
s 2
f 42/6/42 43/7/43 40/1/40 
s 1
f 44/1/44 45/2/45 46/6/46 
s 2
f 46/6/46 47/7/47 44/1/44 
# 0 polygons - 25 triangles

