# 3ds Max Wavefront OBJ Exporter v0.97b - (c)2007 guruware
# File Created: 18.08.2013 17:57:00

mtllib grass.mtl

#
# object FieldGrass01_0
#

v  -52.7133 -0.3540 -1.2564
v  25.4193 -0.3540 2.5985
v  -20.9433 63.5431 37.2470
v  -46.1384 -0.4449 -3.9385
v  -1.0900 57.6965 1.8733
v  -5.3107 -0.4449 54.3695
v  9.1910 -0.3740 -4.6746
v  -24.6282 -0.3741 49.8619
v  -31.0659 52.0418 2.8211
# 9 vertices

vn -0.0427 -0.5000 0.8650
vn 0.7094 -0.5000 -0.4967
vn -0.7360 -0.5000 -0.4564
# 3 vertex normals

vt -0.0770 0.0000 0.0000
vt 1.1667 0.0000 0.0000
vt 0.4576 1.1731 0.0000
vt 0.4550 1.1731 0.0000
# 4 texture coords

g FieldGrass01_0
usemtl Material__25
s 1
f 1/1/1 2/2/1 3/3/1 
f 4/2/2 5/4/2 6/1/2 
f 7/1/3 8/2/3 9/3/3 
# 0 polygons - 3 triangles

