# 3ds Max Wavefront OBJ Exporter v0.97b - (c)2007 guruware
# File Created: 19.08.2013 02:54:32

mtllib tundragrassobj01.mtl

#
# object TundraGrassObj01_0
#

v  34.1053 64.1067 5.3513
v  -30.6739 69.2678 -10.1495
v  -35.2285 -1.8556 -2.3706
v  31.6230 -1.7908 -27.9419
v  -33.6405 62.5140 9.6722
v  30.2603 69.9894 -8.3298
v  35.8144 -1.7640 -7.6305
v  -11.1202 -2.0119 46.1457
v  11.3387 61.7451 -28.7257
v  -7.2706 69.8784 34.9202
v  -14.1092 -1.6504 39.0122
v  -34.1635 -1.8365 -29.3877
v  22.2951 38.8970 -25.1064
v  -18.0977 38.5306 -15.1015
v  -18.4916 -1.9149 -10.4403
v  11.4362 -1.6020 -39.7878
v  2.4572 46.3291 -44.2995
v  -16.0870 42.9363 1.5866
v  5.8076 -1.9684 9.6146
v  -0.3223 -1.7094 -39.7761
v  -13.3879 43.6508 -43.6222
v  13.9384 43.7785 -6.5641
v  19.4497 -1.7749 -7.9061
v  -23.2398 -1.7178 -26.0867
v  -54.9915 44.8784 27.4455
v  -14.0087 44.4552 2.3514
v  -15.1999 -2.2512 -2.9176
v  -37.9192 -1.8899 39.8239
v  -26.4612 53.4609 41.6612
v  -22.0393 49.5429 -15.3203
v  -48.9421 -2.3130 -16.5272
v  -24.9778 -2.0140 35.7124
v  -9.2528 50.3680 35.3925
v  -52.2544 50.5155 4.1187
v  -57.8543 -2.0895 7.5173
v  -4.5187 -2.0237 12.6531
v  9.7427 32.2075 18.7854
v  -2.2215 31.9005 51.5352
v  0.8327 -1.9877 53.9916
v  -5.5429 -1.7255 19.4549
v  -12.8824 38.4346 23.5807
v  10.3149 35.5919 57.9529
v  26.1457 -2.0325 46.5002
v  -11.0411 -1.8155 27.6301
v  -19.8318 36.1905 34.9070
v  18.7124 36.2975 33.2747
v  20.3609 -1.8704 28.8170
v  -12.2618 -1.8225 49.9636
v  20.2626 32.1818 -7.2111
v  37.2387 31.8748 23.2438
v  41.0938 -2.0133 22.5366
v  10.7824 -1.7511 4.7982
v  9.1105 38.4089 13.0502
v  50.2880 35.5662 17.9463
v  51.9610 -2.0582 -1.5211
v  13.3791 -1.8412 14.3020
v  13.1444 36.1649 25.7114
v  37.0921 36.2719 -4.5348
v  34.7944 -1.8960 -8.6953
v  29.4889 -1.8482 29.8180
# 60 vertices

vn 0.0525 -0.1704 0.9840
vn -0.2220 0.1200 0.9676
vn 0.0722 -0.1905 0.9790
vn 0.3218 -0.4366 0.8401
vn -0.4835 -0.3012 -0.8219
vn -0.2678 -0.0301 -0.9630
vn -0.5037 -0.3293 -0.7987
vn -0.6348 -0.5361 -0.5565
vn 0.9400 -0.3394 0.0355
vn 0.9545 -0.0747 0.2886
vn 0.9297 -0.3683 0.0046
vn 0.7924 -0.5647 -0.2308
vn 0.4760 -0.1653 0.8637
vn 0.2381 0.1089 0.9651
vn 0.4812 -0.1720 0.8596
vn 0.6415 -0.4076 0.6499
vn 0.9679 0.2140 0.1315
vn 0.8109 0.4600 0.3617
vn 0.9674 0.2156 0.1330
vn 0.9900 -0.0689 -0.1232
vn 0.6194 -0.1570 -0.7692
vn 0.7994 0.1141 -0.5899
vn 0.6095 -0.1685 -0.7747
vn 0.3581 -0.4032 -0.8421
vn -0.7145 -0.1653 -0.6798
vn -0.5183 0.1089 -0.8483
vn -0.7182 -0.1720 -0.6743
vn -0.8078 -0.4076 -0.4259
vn -0.9625 0.2140 0.1667
vn -0.8822 0.4600 -0.1001
vn -0.9624 0.2156 0.1652
vn -0.9066 -0.0689 0.4163
vn -0.3584 -0.1570 0.9203
vn -0.5841 0.1141 0.8036
vn -0.3472 -0.1685 0.9225
vn -0.0872 -0.4032 0.9109
vn 0.9823 -0.1653 0.0880
vn 0.9334 0.1089 0.3420
vn 0.9817 -0.1720 0.0814
vn 0.8974 -0.4076 -0.1688
vn 0.6501 0.2140 -0.7291
vn 0.7532 0.4600 -0.4702
vn 0.6510 0.2156 -0.7278
vn 0.4511 -0.0689 -0.8898
vn -0.2917 -0.1570 -0.9435
vn -0.0423 0.1141 -0.9926
vn -0.3018 -0.1685 -0.9384
vn -0.4982 -0.4032 -0.7676
vn 0.7084 -0.1653 -0.6861
vn 0.8687 0.1089 -0.4832
vn 0.7031 -0.1720 -0.6900
vn 0.4586 -0.4076 -0.7897
vn -0.1272 0.2140 -0.9685
vn 0.1361 0.4600 -0.8774
vn -0.1257 0.2156 -0.9684
vn -0.3789 -0.0689 -0.9229
vn -0.9049 -0.1570 -0.3957
vn -0.7791 0.1141 -0.6164
vn -0.9076 -0.1685 -0.3846
vn -0.9066 -0.4032 -0.1244
# 60 vertex normals

vt 0.9979 1.0228 0.0000
vt 0.0521 0.9558 0.0000
vt -0.0144 0.0000 0.0000
vt 0.9622 0.0005 0.0000
# 4 texture coords

g TundraGrassObj01_0
usemtl Material__31
s 1
f 1/1/1 2/2/2 3/3/3 
s 2
f 3/3/3 4/4/4 1/1/1 
s 1
f 5/1/5 6/2/6 7/3/7 
s 2
f 7/3/7 8/4/8 5/1/5 
s 1
f 9/1/9 10/2/10 11/3/11 
s 2
f 11/3/11 12/4/12 9/1/9 
s 1
f 13/1/13 14/2/14 15/3/15 
s 2
f 15/3/15 16/4/16 13/1/13 
s 1
f 17/1/17 18/2/18 19/3/19 
s 2
f 19/3/19 20/4/20 17/1/17 
s 1
f 21/1/21 22/2/22 23/3/23 
s 2
f 23/3/23 24/4/24 21/1/21 
s 1
f 25/1/25 26/2/26 27/3/27 
s 2
f 27/3/27 28/4/28 25/1/25 
s 1
f 29/1/29 30/2/30 31/3/31 
s 2
f 31/3/31 32/4/32 29/1/29 
s 1
f 33/1/33 34/2/34 35/3/35 
s 2
f 35/3/35 36/4/36 33/1/33 
s 1
f 37/1/37 38/2/38 39/3/39 
s 2
f 39/3/39 40/4/40 37/1/37 
s 1
f 41/1/41 42/2/42 43/3/43 
s 2
f 43/3/43 44/4/44 41/1/41 
s 1
f 45/1/45 46/2/46 47/3/47 
s 2
f 47/3/47 48/4/48 45/1/45 
s 1
f 49/1/49 50/2/50 51/3/51 
s 2
f 51/3/51 52/4/52 49/1/49 
s 1
f 53/1/53 54/2/54 55/3/55 
s 2
f 55/3/55 56/4/56 53/1/53 
s 1
f 57/1/57 58/2/58 59/3/59 
s 2
f 59/3/59 60/4/60 57/1/57 
# 0 polygons - 30 triangles

