# 3ds Max Wavefront OBJ Exporter v0.97b - (c)2007 guruware
# File Created: 19.08.2013 02:55:04

mtllib tundragrassobj04.mtl

#
# object TundraGrassObj04_0
#

v  -17.9563 -0.2691 -0.4081
v  15.9587 -0.3653 -3.3231
v  16.5719 30.6855 -20.4296
v  -17.4171 23.5233 -27.3024
v  -18.2775 30.3418 17.4974
v  15.6687 22.7582 24.1078
v  -5.5963 -0.8762 -19.7354
v  -4.8843 0.3396 14.2748
v  -0.3388 35.3379 14.8814
v  10.6818 30.8142 -18.4810
v  6.1007 0.1040 18.2515
v  5.1036 -0.5426 -15.7676
v  0.5532 34.3701 -18.3235
v  -10.1874 31.6840 15.3350
v  -10.4428 -0.2268 -17.1606
v  7.8262 -0.2911 -9.0229
v  12.0583 18.4718 -16.6003
v  -2.5703 13.5345 -30.5162
v  10.7916 -0.2595 -7.8226
v  4.9414 -0.2668 -29.4259
v  0.2182 22.2658 -28.9874
v  -2.5709 18.4113 -6.1927
v  -10.7601 -0.2095 -16.8905
v  3.3477 -0.2142 -29.0314
v  12.4692 14.0346 -19.4622
v  -5.4926 17.6590 -13.2159
v  17.1475 -0.1442 12.3440
v  26.8304 -0.2219 -9.7827
v  17.6461 22.4373 -14.8335
v  0.9566 16.4748 2.9426
v  16.6381 -0.1450 10.2340
v  3.0343 -0.1503 -6.1187
v  14.1432 16.1339 -16.3590
v  20.9376 20.2761 4.2852
v  25.6685 -0.0280 -13.3486
v  2.5126 -0.4482 -6.4953
v  3.0738 23.5444 0.0372
v  27.7429 19.2882 2.2086
v  11.9733 -0.2788 23.1768
v  2.4581 -0.3481 3.8441
v  -6.2699 19.8670 7.2000
v  -3.7523 14.5476 28.8069
v  0.8304 -0.3140 0.8060
v  -9.2199 -0.3219 22.7255
v  -5.0071 23.9547 25.6187
v  13.0174 19.8018 8.6690
v  12.4222 -0.2602 23.1719
v  -7.6284 -0.2653 23.4976
v  -8.5832 15.0863 9.2862
v  10.5944 18.9913 16.4981
v  -15.1448 -0.3800 17.3631
v  -29.6035 -0.3864 -4.0145
v  -14.9609 19.3707 -15.0427
v  -9.2390 24.3964 10.6977
v  -3.4784 -0.2544 -4.6619
v  -26.8024 -0.4220 -4.8773
v  -27.8775 22.7092 1.5199
v  -5.7552 18.3002 10.4568
v  -16.0157 -0.2839 15.2679
v  -6.4456 -0.3467 -1.7724
v  -13.4359 17.9886 -6.5755
v  -28.2992 13.1639 6.4002
# 62 vertices

vn -0.1545 0.9796 -0.1284
vn 0.1616 0.9749 0.1529
vn -0.1114 0.6243 0.7732
vn -0.2801 0.7218 0.6329
vn 0.1153 0.6423 -0.7577
vn 0.2841 0.7346 -0.6162
vn -0.9413 0.2945 -0.1651
vn -0.9916 0.1285 0.0162
vn -0.9391 0.2987 -0.1699
vn -0.8327 0.4410 -0.3349
vn 0.9426 0.3029 0.1408
vn 0.9914 0.1269 -0.0315
vn 0.9404 0.3074 0.1454
vn 0.8352 0.4588 0.3031
vn -0.5054 0.5893 0.6303
vn -0.3683 0.4184 0.8302
vn -0.5077 0.5922 0.6257
vn -0.5975 0.7077 0.3770
vn 0.9157 0.4006 -0.0311
vn 0.9451 0.2031 -0.2560
vn 0.9149 0.4026 -0.0286
vn 0.8058 0.5598 0.1933
vn 0.3906 -0.4971 0.7748
vn 0.4783 -0.6797 0.5561
vn 0.3889 -0.4938 0.7777
vn 0.2674 -0.2691 0.9252
vn 0.6336 0.5893 0.5013
vn 0.8326 0.4184 0.3629
vn 0.6290 0.5922 0.5036
vn 0.3809 0.7077 0.5950
vn 0.7813 -0.4971 -0.3776
vn 0.5640 -0.6797 -0.4690
vn 0.7841 -0.4938 -0.3759
vn 0.9296 -0.2691 -0.2519
vn -0.0536 0.4538 -0.8895
vn -0.2785 0.2584 -0.9250
vn -0.0507 0.4560 -0.8885
vn 0.1729 0.6065 -0.7761
vn 0.7917 0.5893 -0.1609
vn 0.8143 0.4184 -0.4023
vn 0.7906 0.5922 -0.1560
vn 0.7004 0.7077 0.0926
vn -0.7236 0.4006 -0.5621
vn -0.8901 0.2031 -0.4080
vn -0.7214 0.4026 -0.5635
vn -0.4955 0.5598 -0.6641
vn 0.1957 -0.4971 -0.8454
vn -0.0117 -0.6797 -0.7334
vn 0.1988 -0.4938 -0.8465
vn 0.3865 -0.2691 -0.8821
vn 0.8148 -0.4971 -0.2983
vn 0.6077 -0.6797 -0.4108
vn 0.8175 -0.4938 -0.2963
vn 0.9500 -0.2691 -0.1586
vn 0.2135 0.4590 -0.8624
vn 0.0070 0.2669 -0.9637
vn 0.2161 0.4613 -0.8605
vn 0.3985 0.6082 -0.6865
vn 0.5808 0.5893 0.5616
vn 0.7926 0.4184 0.4436
vn 0.5761 0.5922 0.5634
vn 0.3201 0.7077 0.6298
# 62 vertex normals

vt 0.0000 0.0204 0.0000
vt 0.9302 0.0204 0.0000
vt 1.0083 1.0009 0.0000
vt 0.0477 1.0009 0.0000
# 4 texture coords

g TundraGrassObj04_0
usemtl Material__32
s 1
f 1/1/1 2/2/2 3/3/3 
f 3/3/3 4/4/4 1/1/1 
f 2/1/2 1/2/1 5/3/5 
f 5/3/5 6/4/6 2/1/2 
f 7/1/7 8/2/8 9/3/9 
f 9/3/9 10/4/10 7/1/7 
f 11/1/11 12/2/12 13/3/13 
f 13/3/13 14/4/14 11/1/11 
f 15/1/15 16/2/16 17/3/17 
s 2
f 17/3/17 18/4/18 15/1/15 
s 1
f 19/1/19 20/2/20 21/3/21 
s 2
f 21/3/21 22/4/22 19/1/19 
s 1
f 23/1/23 24/2/24 25/3/25 
s 2
f 25/3/25 26/4/26 23/1/23 
s 1
f 27/1/27 28/2/28 29/3/29 
s 2
f 29/3/29 30/4/30 27/1/27 
s 1
f 31/1/31 32/2/32 33/3/33 
s 2
f 33/3/33 34/4/34 31/1/31 
s 1
f 35/1/35 36/2/36 37/3/37 
s 2
f 37/3/37 38/4/38 35/1/35 
s 1
f 39/1/39 40/2/40 41/3/41 
s 2
f 41/3/41 42/4/42 39/1/39 
s 1
f 43/1/43 44/2/44 45/3/45 
s 2
f 45/3/45 46/4/46 43/1/43 
s 1
f 47/1/47 48/2/48 49/3/49 
s 2
f 49/3/49 50/4/50 47/1/47 
s 1
f 51/1/51 52/2/52 53/3/53 
s 2
f 53/3/53 54/4/54 51/1/51 
s 1
f 55/1/55 56/2/56 57/3/57 
s 2
f 57/3/57 58/4/58 55/1/55 
s 1
f 59/1/59 60/2/60 61/3/61 
s 2
f 61/3/61 62/4/62 59/1/59 
# 0 polygons - 32 triangles

